<?xml version="1.0" encoding="UTF-8"?>
<!DOCTYPE svg PUBLIC "-//W3C//DTD SVG 1.1//EN" "http://www.w3.org/Graphics/SVG/1.1/DTD/svg11.dtd">
<svg xmlns="http://www.w3.org/2000/svg" xmlns:xlink="http://www.w3.org/1999/xlink" version="1.1" width="631px" height="451px" viewBox="-0.5 -0.5 631 451" style="background-color: rgb(255, 255, 255);"><defs><linearGradient x1="0%" y1="100%" x2="0%" y2="0%" id="mx-gradient-60a337-1-277116-1-s-0"><stop offset="0%" style="stop-color:#277116"/><stop offset="100%" style="stop-color:#60A337"/></linearGradient><linearGradient x1="0%" y1="100%" x2="0%" y2="0%" id="mx-gradient-f78e04-1-d05c17-1-s-0"><stop offset="0%" style="stop-color:#D05C17"/><stop offset="100%" style="stop-color:#F78E04"/></linearGradient><linearGradient x1="0%" y1="100%" x2="0%" y2="0%" id="mx-gradient-945df2-1-5a30b5-1-s-0"><stop offset="0%" style="stop-color:#5A30B5"/><stop offset="100%" style="stop-color:#945DF2"/></linearGradient><linearGradient x1="0%" y1="100%" x2="0%" y2="0%" id="mx-gradient-f34482-1-bc1356-1-s-0"><stop offset="0%" style="stop-color:#BC1356"/><stop offset="100%" style="stop-color:#F34482"/></linearGradient></defs><g><rect x="134" y="0" width="346" height="130" fill="#eff0f3" stroke="none" pointer-events="all"/><g fill="#232F3D" font-family="Helvetica" text-anchor="middle" font-size="12px"><text x="306.5" y="17.5">API</text></g><rect x="290" y="150" width="340" height="300" fill="#eff0f3" stroke="none" pointer-events="all"/><g fill="#232F3D" font-family="Helvetica" text-anchor="middle" font-size="12px"><text x="459.5" y="167.5">Backend</text></g><path d="M 520 340 L 598 340 L 598 418 L 520 418 Z" fill="url(#mx-gradient-60a337-1-277116-1-s-0)" stroke="none" pointer-events="all"/><path d="M 557.18 347.83 C 550.72 347.8 544.36 348.78 539.34 350.32 C 536.65 351.15 534.35 352.12 532.58 353.24 C 530.81 354.35 529.49 355.6 529.09 357.25 C 529.07 357.35 529.06 357.46 529.06 357.56 L 529.06 357.56 C 529.06 357.56 529.06 357.56 529.06 357.56 C 529.06 357.6 529.06 357.65 529.07 357.69 C 529.08 357.9 529.11 358.11 529.15 358.31 L 535.35 403.6 C 535.36 403.63 535.36 403.67 535.37 403.7 C 535.68 405.08 536.79 406 538.13 406.75 C 539.48 407.51 541.18 408.12 543.1 408.62 C 546.95 409.62 551.71 410.17 556.03 410.16 C 561.56 410.2 566.52 409.74 570.44 408.86 C 574.36 407.98 577.28 406.8 578.73 404.76 C 578.85 404.6 578.92 404.42 578.94 404.23 L 581.69 384.67 C 582.32 384.83 582.95 384.97 583.56 385.08 C 584.66 385.27 585.68 385.38 586.65 385.19 C 587.14 385.1 587.62 384.93 588.05 384.58 C 588.48 384.22 588.8 383.68 588.89 383.11 C 588.9 383.05 588.91 382.99 588.91 382.93 C 588.94 381.25 587.73 380.13 586.44 379.11 C 585.32 378.24 584.01 377.46 582.78 376.86 L 585.48 357.63 C 585.5 357.48 585.49 357.32 585.45 357.17 C 585.03 355.49 583.66 354.25 581.88 353.17 C 580.1 352.08 577.83 351.16 575.28 350.38 C 570.17 348.83 563.93 347.88 558.47 347.85 L 558.47 347.85 C 558.04 347.84 557.61 347.83 557.18 347.83 Z M 557.18 350.27 C 557.59 350.27 558.01 350.28 558.42 350.29 L 558.42 350.29 C 558.43 350.29 558.44 350.29 558.45 350.29 C 563.63 350.31 569.72 351.24 574.57 352.72 C 576.99 353.45 579.1 354.33 580.61 355.25 C 582.02 356.1 582.77 356.98 583 357.61 C 582.79 358.3 582.16 359.05 580.98 359.82 C 579.63 360.69 577.63 361.5 575.24 362.16 C 570.45 363.46 564.09 364.18 557.85 364.18 C 557.84 364.18 557.83 364.18 557.82 364.18 C 552.07 364.29 545.27 363.65 540.01 362.35 C 537.38 361.7 535.12 360.88 533.62 359.98 C 532.35 359.22 531.72 358.49 531.55 357.84 L 531.53 357.7 C 531.72 357.1 532.45 356.2 533.88 355.3 C 535.38 354.35 537.51 353.43 540.05 352.65 C 544.8 351.19 550.97 350.24 557.18 350.27 Z M 582.44 361.77 L 579.66 381.57 C 579.01 381.37 578.36 381.18 577.78 381.01 C 572.61 379.18 564.98 375.92 560.01 373.48 C 560.01 373.46 560.01 373.45 560.01 373.43 C 560.01 371.9 558.75 370.63 557.21 370.63 C 555.68 370.63 554.41 371.9 554.41 373.43 C 554.41 374.97 555.68 376.23 557.21 376.23 C 557.85 376.23 558.44 376.01 558.91 375.65 C 564 378.15 571.66 381.43 576.99 383.31 C 577.01 383.32 577.03 383.32 577.05 383.33 C 577.72 383.53 578.51 383.77 579.32 384.01 L 576.59 403.47 C 575.8 404.44 573.45 405.69 569.9 406.49 C 566.23 407.31 561.42 407.77 556.04 407.73 C 556.03 407.73 556.03 407.73 556.02 407.73 C 551.91 407.74 547.3 407.2 543.71 406.27 C 541.91 405.8 540.37 405.23 539.32 404.64 C 538.26 404.05 537.81 403.45 537.75 403.18 L 532.1 361.9 C 532.19 361.96 532.28 362.01 532.37 362.07 C 534.22 363.17 536.65 364.03 539.42 364.71 C 544.97 366.08 551.89 366.73 557.86 366.61 C 564.28 366.61 570.79 365.89 575.88 364.5 C 578.42 363.81 580.62 362.95 582.3 361.86 C 582.35 361.83 582.39 361.8 582.44 361.77 Z M 557.22 373.07 C 557.43 373.07 557.58 373.22 557.58 373.43 C 557.58 373.65 557.43 373.8 557.22 373.8 C 557 373.8 556.85 373.65 556.85 373.43 C 556.85 373.22 557 373.07 557.22 373.07 Z M 582.42 379.42 C 583.31 379.9 584.21 380.46 584.93 381.03 C 585.92 381.81 586.3 382.52 586.36 382.75 C 586.31 382.77 586.31 382.78 586.2 382.81 C 585.77 382.89 584.94 382.85 583.98 382.69 C 583.37 382.58 582.71 382.42 582.03 382.24 Z" fill="#ffffff" stroke="none" pointer-events="all"/><path d="M 428 379 L 513.63 379" fill="none" stroke="#000000" stroke-miterlimit="10" pointer-events="stroke"/><path d="M 518.88 379 L 511.88 382.5 L 513.63 379 L 511.88 375.5 Z" fill="#000000" stroke="#000000" stroke-miterlimit="10" pointer-events="all"/><path d="M 350 340 L 428 340 L 428 418 L 350 418 Z" fill="url(#mx-gradient-f78e04-1-d05c17-1-s-0)" stroke="none" pointer-events="all"/><path d="M 370.31 347.8 C 369.64 347.8 369.09 348.35 369.09 349.02 L 369.09 362.78 C 369.09 363.45 369.64 364 370.31 364 L 379.52 364 L 401.3 409.51 C 401.5 409.93 401.93 410.2 402.4 410.2 L 417.76 410.2 C 418.44 410.2 418.98 409.65 418.98 408.98 L 418.98 395.22 C 418.98 394.55 418.44 394 417.76 394 L 412.31 394 L 390.61 348.5 C 390.41 348.07 389.98 347.8 389.51 347.8 Z M 371.53 350.24 L 388.74 350.24 L 410.44 395.74 C 410.64 396.17 411.07 396.44 411.54 396.44 L 416.55 396.44 L 416.55 407.76 L 403.17 407.76 L 381.39 362.26 C 381.18 361.83 380.76 361.56 380.29 361.56 L 371.53 361.56 Z M 377.3 372.11 C 376.82 372.1 376.38 372.37 376.17 372.81 L 359.2 408.44 C 359.02 408.82 359.04 409.26 359.27 409.62 C 359.49 409.97 359.88 410.19 360.3 410.19 L 376.48 410.19 C 376.95 410.19 377.37 409.92 377.58 409.49 L 386.55 390.74 C 386.71 390.41 386.71 390.02 386.55 389.69 L 378.37 372.8 C 378.17 372.39 377.76 372.12 377.3 372.11 Z M 377.28 376.15 L 384.09 390.22 L 375.71 407.75 L 362.23 407.75 Z" fill="#ffffff" stroke="none" pointer-events="all"/><path d="M 160 20 L 238 20 L 238 98 L 160 98 Z" fill="url(#mx-gradient-945df2-1-5a30b5-1-s-0)" stroke="none" pointer-events="all"/><path d="M 212.72 28.96 C 212.07 28.99 211.55 29.53 211.55 30.18 L 211.55 43.97 L 207.74 43.97 L 207.74 46.4 L 211.55 46.4 L 211.55 71.5 L 207.71 71.5 L 207.71 73.93 L 211.55 73.93 L 211.55 87.76 C 211.55 88.16 211.74 88.52 212.06 88.75 C 212.37 88.98 212.78 89.04 213.15 88.92 L 229.37 83.49 C 229.87 83.32 230.2 82.86 230.2 82.33 L 230.2 38.21 C 230.2 37.75 229.94 37.33 229.52 37.12 L 213.31 29.09 C 213.12 29 212.92 28.96 212.72 28.96 Z M 185.23 29.03 C 185.05 29.03 184.88 29.07 184.73 29.15 L 168.48 37.18 C 168.06 37.39 167.8 37.81 167.8 38.27 L 167.8 82.35 C 167.8 82.87 168.14 83.34 168.63 83.51 L 184.88 88.92 C 185.25 89.05 185.66 88.98 185.98 88.75 C 186.3 88.52 186.48 88.16 186.48 87.76 L 186.48 73.93 L 188.99 73.93 L 188.99 71.5 L 186.48 71.5 L 186.48 46.4 L 188.96 46.4 L 188.96 43.97 L 186.48 43.97 L 186.48 30.24 C 186.48 29.91 186.35 29.6 186.11 29.37 C 185.88 29.14 185.56 29.02 185.23 29.03 Z M 213.98 32.14 L 227.77 38.97 L 227.77 81.46 L 213.98 86.08 Z M 184.05 32.2 L 184.05 86.08 L 170.24 81.47 L 170.24 39.03 Z M 192.71 43.97 L 192.71 46.4 L 196.51 46.4 L 196.51 43.97 Z M 200.24 43.97 L 200.24 46.4 L 203.98 46.4 L 203.98 43.97 Z M 200.37 51.2 L 195.37 65.95 L 197.68 66.73 L 202.67 51.98 Z M 193.56 53.28 L 188.79 57.36 C 188.52 57.59 188.36 57.93 188.36 58.28 C 188.36 58.64 188.52 58.98 188.79 59.21 L 193.56 63.27 L 195.14 61.42 L 191.45 58.28 L 195.14 55.13 Z M 204.47 53.34 L 202.9 55.2 L 206.51 58.24 L 202.89 61.36 L 204.47 63.21 L 209.19 59.16 C 209.46 58.93 209.61 58.59 209.61 58.23 C 209.61 57.87 209.45 57.53 209.18 57.3 Z M 192.67 71.5 L 192.67 73.93 L 196.5 73.93 L 196.5 71.5 Z M 200.24 71.5 L 200.24 73.93 L 203.91 73.93 L 203.91 71.5 Z" fill="#ffffff" stroke="none" pointer-events="all"/><path d="M 389 98 L 389 173.63" fill="none" stroke="#000000" stroke-miterlimit="10" pointer-events="stroke"/><path d="M 389 178.88 L 385.5 171.88 L 389 173.63 L 392.5 171.88 Z" fill="#000000" stroke="#000000" stroke-miterlimit="10" pointer-events="all"/><path d="M 350 20 L 428 20 L 428 98 L 350 98 Z" fill="url(#mx-gradient-f78e04-1-d05c17-1-s-0)" stroke="none" pointer-events="all"/><path d="M 370.31 27.8 C 369.64 27.8 369.09 28.35 369.09 29.02 L 369.09 42.78 C 369.09 43.45 369.64 44 370.31 44 L 379.52 44 L 401.3 89.51 C 401.5 89.93 401.93 90.2 402.4 90.2 L 417.76 90.2 C 418.44 90.2 418.98 89.65 418.98 88.98 L 418.98 75.22 C 418.98 74.55 418.44 74 417.76 74 L 412.31 74 L 390.61 28.5 C 390.41 28.07 389.98 27.8 389.51 27.8 Z M 371.53 30.24 L 388.74 30.24 L 410.44 75.74 C 410.64 76.17 411.07 76.44 411.54 76.44 L 416.55 76.44 L 416.55 87.76 L 403.17 87.76 L 381.39 42.26 C 381.18 41.83 380.76 41.56 380.29 41.56 L 371.53 41.56 Z M 377.3 52.11 C 376.82 52.1 376.38 52.37 376.17 52.81 L 359.2 88.44 C 359.02 88.82 359.04 89.26 359.27 89.62 C 359.49 89.97 359.88 90.19 360.3 90.19 L 376.48 90.19 C 376.95 90.19 377.37 89.92 377.58 89.49 L 386.55 70.74 C 386.71 70.41 386.71 70.02 386.55 69.69 L 378.37 52.8 C 378.17 52.39 377.76 52.12 377.3 52.11 Z M 377.28 56.15 L 384.09 70.22 L 375.71 87.75 L 362.23 87.75 Z" fill="#ffffff" stroke="none" pointer-events="all"/><path d="M 389 258 L 389 333.63" fill="none" stroke="#000000" stroke-miterlimit="10" pointer-events="stroke"/><path d="M 389 338.88 L 385.5 331.88 L 389 333.63 L 392.5 331.88 Z" fill="#000000" stroke="#000000" stroke-miterlimit="10" pointer-events="all"/><path d="M 350 180 L 428 180 L 428 258 L 350 258 Z" fill="url(#mx-gradient-f34482-1-bc1356-1-s-0)" stroke="none" pointer-events="all"/><path d="M 363.8 228.27 C 367.58 238.49 377.41 245.78 388.93 245.78 C 400.55 245.78 410.45 238.36 414.16 228 L 411.96 227.15 C 408.61 236.64 399.57 243.42 388.93 243.42 C 378.4 243.42 369.44 236.78 366 227.45 Z M 365.46 212.19 C 368.4 202.01 377.79 194.58 388.93 194.58 C 400.01 194.58 409.36 201.94 412.35 212.05 L 414.68 211.61 C 411.47 200.42 401.14 192.22 388.93 192.22 C 376.8 192.22 366.54 200.3 363.25 211.37 Z M 399.59 210.82 C 399.59 210.82 399.59 210.81 399.6 210.81 C 400.61 209.67 398.98 208.11 397.89 209.18 C 397.89 209.18 397.88 209.19 397.88 209.19 L 397.88 209.19 C 396.63 210.52 393.19 212.63 389.09 212.63 C 385.23 212.63 382.33 211.51 379.61 209.11 C 379.4 208.93 379.13 208.83 378.85 208.82 L 378.85 208.82 C 377.84 208.8 377.27 209.99 377.93 210.76 C 380.03 213.24 381.48 215.96 381.48 220.32 C 381.48 223.8 379.77 227.03 377.85 229.07 C 376.84 230.16 378.35 231.73 379.48 230.76 C 382.59 228.02 386.6 227.23 389.06 227.23 C 392.47 227.23 395.57 228.8 397.94 230.84 C 399.07 231.8 400.58 230.21 399.56 229.12 C 397.69 227.17 396.2 223.81 396.2 220.26 C 396.2 216.18 397.62 212.85 399.59 210.82 Z M 382.5 213.66 C 384.5 214.51 386.67 214.98 389.09 214.98 C 391.32 214.98 393.29 214.48 394.99 213.78 C 394.1 215.91 393.59 218.18 393.59 220.2 C 393.59 221.93 394.1 224.11 395 226.21 C 393.19 225.4 391.21 224.87 389.06 224.87 C 387.28 224.87 384.92 225.27 382.52 226.25 C 383.32 224.47 383.84 222.46 383.84 220.32 C 383.84 217.71 383.32 215.55 382.5 213.66 Z M 397.63 221.14 L 402.74 221.14 L 400.9 222.9 L 402.51 224.62 L 406.5 220.89 C 406.99 220.44 407 219.67 406.53 219.19 L 402.63 215.32 L 400.96 217 L 402.8 218.78 L 397.63 218.78 Z M 414.72 214.49 C 411.7 214.49 409.23 216.96 409.23 219.97 C 409.23 222.99 411.7 225.46 414.72 225.46 C 417.73 225.46 420.2 222.99 420.2 219.97 C 420.2 216.96 417.73 214.49 414.72 214.49 Z M 414.72 216.85 C 416.46 216.85 417.84 218.23 417.84 219.97 C 417.84 221.71 416.46 223.1 414.72 223.1 C 412.97 223.1 411.59 221.71 411.59 219.97 C 411.59 218.23 412.97 216.85 414.72 216.85 Z M 363.28 214.49 L 363.29 214.49 C 360.27 214.49 357.8 216.96 357.8 219.97 C 357.8 222.99 360.27 225.46 363.29 225.46 C 365.84 225.46 368.64 224.03 368.64 220.19 C 368.64 216.19 365.95 214.49 363.28 214.49 Z M 363.29 216.85 C 365.03 216.85 366.41 218.23 366.41 219.97 C 366.41 221.72 365.03 223.1 363.29 223.1 C 361.54 223.1 360.16 221.72 360.16 219.97 C 360.16 218.23 361.54 216.85 363.29 216.85 Z M 370.34 221.1 L 375.69 221.1 L 373.92 222.88 L 375.56 224.57 L 379.37 220.86 C 379.84 220.4 379.84 219.65 379.38 219.18 L 375.61 215.38 L 373.93 217.04 L 375.67 218.74 L 370.34 218.74 Z" fill="#ffffff" stroke="none" pointer-events="all"/><rect x="0" y="20" width="78" height="78" fill="none" stroke="none" pointer-events="all"/><path d="M 29.59 58.06 C 32.34 59.48 35.46 60.28 38.76 60.28 C 42.06 60.28 45.17 59.48 47.92 58.07 C 51.05 58.26 54.73 59.8 58.17 62.02 C 61.91 64.45 65.35 67.66 67.59 70.49 C 72.55 77.24 74.73 83.41 74.57 94.95 L 3.05 94.95 C 3.23 81.1 5.5 75.87 11.87 68.1 C 14.8 64.86 22.08 59.24 29.59 58.06 Z M 38.76 23.05 C 48.24 23.05 55.89 30.7 55.89 40.17 C 55.89 46.56 52.4 52.12 47.23 55.06 C 47.15 55.06 47.08 55.06 47.01 55.06 L 47.01 55.19 C 44.56 56.53 41.75 57.3 38.76 57.3 C 29.29 57.3 21.64 49.65 21.64 40.17 C 21.64 30.7 29.29 23.05 38.76 23.05 Z M 38.76 20.06 C 27.67 20.06 18.65 29.08 18.65 40.17 C 18.65 46.46 21.56 52.09 26.09 55.77 C 18.77 57.84 12.6 62.83 9.63 66.13 C 9.61 66.14 9.59 66.16 9.58 66.18 C 2.74 74.53 0 80.95 0 96.45 C 0 96.84 0.16 97.22 0.44 97.5 C 0.72 97.78 1.1 97.94 1.49 97.94 L 76.09 97.94 C 76.9 97.94 77.56 97.3 77.59 96.49 C 78 83.47 75.45 76.14 69.98 68.7 C 69.97 68.69 69.96 68.67 69.95 68.66 C 67.47 65.52 63.84 62.15 59.79 59.52 C 57.17 57.82 54.38 56.42 51.57 55.66 C 56.03 51.97 58.87 46.4 58.87 40.17 C 58.87 29.08 49.85 20.06 38.76 20.06 Z" fill="#232f3e" stroke="none" pointer-events="all"/><path d="M 70 60 L 151.88 60" fill="none" stroke="#545b64" stroke-miterlimit="10" pointer-events="stroke"/><path d="M 158.88 60 L 151.88 63.5 L 151.88 56.5 Z" fill="#545b64" stroke="#545b64" stroke-miterlimit="10" pointer-events="all"/><path d="M 250 58.5 L 331.88 58.5" fill="none" stroke="#545b64" stroke-miterlimit="10" pointer-events="stroke"/><path d="M 338.88 58.5 L 331.88 62 L 331.88 55 Z" fill="#545b64" stroke="#545b64" stroke-miterlimit="10" pointer-events="all"/></g></svg>